# This file uses centimeters as units for non-parametric coordinates.

mtllib Plate_Test.mtl
g default
v -0.777000 -1.161308 0.175215
v 0.000000 -1.161308 0.175215
v 0.777000 -1.161308 0.175215
v -0.777000 -0.000000 0.175215
v -0.176006 -0.359468 0.169276
v 0.176007 -0.359468 0.169276
v 0.777000 -0.000000 0.175215
v -0.176006 0.359468 0.169276
v 0.176007 0.359468 0.169276
v -0.777000 1.161308 0.175215
v 0.000000 1.161308 0.175215
v 0.777000 1.161308 0.175215
v -0.922462 1.378716 0.089678
v 0.000000 1.378716 0.089678
v 0.922462 1.378716 0.089678
v -0.922462 1.378716 -0.175215
v 0.000000 1.378716 -0.175215
v 0.922462 1.378716 -0.175215
v -0.922462 0.000000 -0.175215
v 0.000000 0.000000 -0.154329
v 0.922462 0.000000 -0.175215
v -0.922462 -1.378716 -0.175215
v 0.000000 -1.378716 -0.175215
v 0.922462 -1.378716 -0.175215
v -0.922462 -1.378716 0.089678
v 0.000000 -1.378716 0.089678
v 0.922462 -1.378716 0.089678
v 0.922462 -0.000000 0.089678
v -0.922462 -0.000000 0.089678
v -0.176006 -0.359468 0.014781
v 0.176007 -0.359468 0.014781
v 0.176007 0.359468 0.014781
v -0.176006 0.359468 0.014781
vt 0.375000 0.000000
vt 0.500000 0.000000
vt 0.625000 0.000000
vt 0.375000 0.125000
vt 0.458333 0.083333
vt 0.541667 0.083333
vt 0.625000 0.125000
vt 0.458333 0.166667
vt 0.541667 0.166667
vt 0.375000 0.250000
vt 0.500000 0.250000
vt 0.625000 0.250000
vt 0.375000 0.333333
vt 0.500000 0.333333
vt 0.625000 0.333333
vt 0.375000 0.500000
vt 0.500000 0.500000
vt 0.625000 0.500000
vt 0.375000 0.625000
vt 0.500000 0.625000
vt 0.625000 0.625000
vt 0.375000 0.750000
vt 0.500000 0.750000
vt 0.625000 0.750000
vt 0.375000 0.916667
vt 0.500000 0.916667
vt 0.625000 0.916667
vt 0.375000 1.000000
vt 0.500000 1.000000
vt 0.625000 1.000000
vt 0.875000 0.000000
vt 0.708333 0.000000
vt 0.875000 0.125000
vt 0.708333 0.125000
vt 0.875000 0.250000
vt 0.708333 0.250000
vt 0.125000 0.000000
vt 0.291667 0.000000
vt 0.125000 0.125000
vt 0.291667 0.125000
vt 0.125000 0.250000
vt 0.291667 0.250000
vt 0.458333 0.083333
vt 0.541667 0.083333
vt 0.541667 0.166667
vt 0.458333 0.166667
vn 0.005221 0.003493 0.999980
vn 0.000000 0.004797 0.999988
vn 0.005034 0.003633 0.999981
vn 0.006774 0.000000 0.999977
vn -0.005034 0.003633 0.999981
vn -0.005221 0.003493 0.999980
vn -0.006774 0.000000 0.999977
vn 0.005034 -0.003633 0.999981
vn -0.000000 0.000000 1.000000
vn -0.000000 0.000000 1.000000
vn -0.000000 0.000000 1.000000
vn -0.000000 0.000000 1.000000
vn -0.005034 -0.003633 0.999981
vn -0.000000 -0.004797 0.999988
vn 0.005221 -0.003493 0.999980
vn -0.005221 -0.003493 0.999980
vn 0.000000 0.366123 0.930566
vn 0.000000 0.366123 0.930566
vn 0.000000 0.826475 0.562973
vn 0.000000 0.826475 0.562973
vn 0.000000 0.366123 0.930566
vn 0.000000 0.826475 0.562973
vn 0.000000 1.000000 0.000000
vn 0.000000 1.000000 0.000000
vn 0.000000 1.000000 0.000000
vn 0.011319 -0.007574 -0.999907
vn 0.000000 -0.007574 -0.999971
vn 0.000000 0.000000 -1.000000
vn 0.011320 0.000000 -0.999936
vn -0.011319 -0.007574 -0.999907
vn -0.011320 0.000000 -0.999936
vn 0.000000 0.007574 -0.999971
vn 0.011319 0.007574 -0.999907
vn -0.011319 0.007574 -0.999907
vn 0.000000 -1.000000 0.000000
vn 0.000000 -0.826475 0.562973
vn 0.000000 -0.826475 0.562973
vn 0.000000 -1.000000 0.000000
vn 0.000000 -0.826475 0.562973
vn 0.000000 -1.000000 0.000000
vn 0.000000 -0.366123 0.930566
vn 0.000000 -0.366123 0.930566
vn 0.000000 -0.366123 0.930566
vn 0.868013 0.000000 0.496542
vn 0.868013 0.000000 0.496542
vn 1.000000 0.000000 0.000000
vn 1.000000 0.000000 0.000000
vn 0.506893 0.000000 0.862009
vn 0.506893 0.000000 0.862009
vn 1.000000 0.000000 0.000000
vn 0.868013 0.000000 0.496542
vn 0.506893 0.000000 0.862009
vn -1.000000 0.000000 0.000000
vn -1.000000 0.000000 0.000000
vn -0.868013 0.000000 0.496542
vn -0.868013 0.000000 0.496542
vn -0.506893 0.000000 0.862009
vn -0.506893 0.000000 0.862009
vn -0.868013 0.000000 0.496542
vn -1.000000 0.000000 0.000000
vn -0.506893 0.000000 0.862009
vn 0.000000 1.000000 0.000000
vn 0.000000 1.000000 0.000000
vn 0.000000 1.000000 0.000000
vn 0.000000 1.000000 0.000000
vn -1.000000 0.000000 0.000000
vn -1.000000 0.000000 0.000000
vn -1.000000 0.000000 0.000000
vn -1.000000 0.000000 0.000000
vn 0.000000 -1.000000 0.000000
vn 0.000000 -1.000000 0.000000
vn 0.000000 -1.000000 0.000000
vn 0.000000 -1.000000 0.000000
vn 1.000000 0.000000 0.000000
vn 1.000000 0.000000 0.000000
vn 1.000000 0.000000 0.000000
vn 1.000000 0.000000 0.000000
s 1
g Plate
usemtl initialShadingGroup
f 1/1/1 2/2/2 5/5/3 4/4/4
f 2/2/2 6/6/5 5/5/3
f 2/2/2 3/3/6 7/7/7 6/6/5
f 4/4/4 5/5/3 8/8/8
s off
f 30/43/9 31/44/10 32/45/11 33/46/12
s 1
f 6/6/5 7/7/7 9/9/13
f 4/4/4 8/8/8 11/11/14 10/10/15
f 8/8/8 9/9/13 11/11/14
f 9/9/13 7/7/7 12/12/16 11/11/14
s 2
f 10/10/17 11/11/18 14/14/19 13/13/20
f 11/11/18 12/12/21 15/15/22 14/14/19
f 14/14/19 17/17/23 16/16/24 13/13/20
f 18/18/25 17/17/23 14/14/19 15/15/22
s 3
f 16/16/26 17/17/27 20/20/28 19/19/29
f 17/17/27 18/18/30 21/21/31 20/20/28
f 19/19/29 20/20/28 23/23/32 22/22/33
f 20/20/28 21/21/31 24/24/34 23/23/32
s 4
f 23/23/35 26/26/36 25/25/37 22/22/38
f 27/27/39 26/26/36 23/23/35 24/24/40
f 25/25/37 26/26/36 2/29/41 1/28/42
f 26/26/36 27/27/39 3/30/43 2/29/41
s 5
f 28/34/44 27/32/45 24/31/46 21/33/47
f 3/3/48 27/32/45 28/34/44 7/7/49
f 18/35/50 15/36/51 28/34/44 21/33/47
f 7/7/49 28/34/44 15/36/51 12/12/52
s 6
f 19/39/53 22/37/54 25/38/55 29/40/56
f 25/38/55 1/1/57 4/4/58 29/40/56
f 13/42/59 16/41/60 19/39/53 29/40/56
f 29/40/56 4/4/58 10/10/61 13/42/59
s off
f 5/5/62 6/6/63 31/44/64 30/43/65
f 6/6/66 9/9/67 32/45/68 31/44/69
f 9/9/70 8/8/71 33/46/72 32/45/73
f 8/8/74 5/5/75 30/43/76 33/46/77
