g Exported Mesh Combined Mesh 
v 16.44111 -3.281887 -4.323161
v 16.48562 -3.343142 -4.323161
v 16.48562 -3.418858 -4.323161
v 16.44111 -3.480113 -4.323161
v 16.3691 -3.258489 -4.323161
v 16.3691 -3.503511 -4.323161
v 16.29709 -3.281887 -4.323161
v 16.29709 -3.480113 -4.323161
v 16.25259 -3.343142 -4.323161
v 16.25259 -3.418858 -4.323161
v 16.29709 -3.281887 -4.39466
v 16.25259 -3.343142 -4.39466
v 16.25259 -3.418858 -4.39466
v 16.29709 -3.480113 -4.39466
v 16.3691 -3.258489 -4.39466
v 16.3691 -3.503511 -4.39466
v 16.44111 -3.281887 -4.39466
v 16.44111 -3.480113 -4.39466
v 16.48562 -3.343142 -4.39466
v 16.48562 -3.418858 -4.39466
v 16.2527 -3.418106 -4.395161
v 16.2527 -3.343033 -4.322161
v 16.2527 -3.418106 -4.322161
v 16.2527 -3.343033 -4.395161
v 16.25313 -3.342601 -4.395161
v 16.29725 -3.281866 -4.322161
v 16.25313 -3.342601 -4.322161
v 16.29725 -3.281866 -4.395161
v 16.29785 -3.281763 -4.395161
v 16.36925 -3.258565 -4.322161
v 16.29785 -3.281763 -4.322161
v 16.36925 -3.258565 -4.395161
v 16.36978 -3.258831 -4.395161
v 16.44118 -3.282029 -4.322161
v 16.36978 -3.258831 -4.322161
v 16.44118 -3.282029 -4.395161
v 16.44147 -3.282563 -4.395161
v 16.48559 -3.343297 -4.322161
v 16.44147 -3.282563 -4.322161
v 16.48559 -3.343297 -4.395161
v 16.4855 -3.343894 -4.395161
v 16.4855 -3.418967 -4.322161
v 16.4855 -3.343894 -4.322161
v 16.4855 -3.418967 -4.395161
v 16.48508 -3.419399 -4.395161
v 16.44096 -3.480134 -4.322161
v 16.48508 -3.419399 -4.322161
v 16.44096 -3.480134 -4.395161
v 16.44036 -3.480237 -4.395161
v 16.36897 -3.503435 -4.322161
v 16.44036 -3.480237 -4.322161
v 16.36897 -3.503435 -4.395161
v 16.36843 -3.503169 -4.395161
v 16.29703 -3.479971 -4.322161
v 16.36843 -3.503169 -4.322161
v 16.29703 -3.479971 -4.395161
v 16.29675 -3.479437 -4.395161
v 16.25262 -3.418703 -4.322161
v 16.29675 -3.479437 -4.322161
v 16.25262 -3.418703 -4.395161

vn 0 0 1
vn 0 0 1
vn 0 0 1
vn 0 0 1
vn 0 0 1
vn 0 0 1
vn 0 0 1
vn 0 0 1
vn 0 0 1
vn 0 0 1
vn -6.516827E-07 3.258414E-07 -1
vn -6.516827E-07 3.258414E-07 -1
vn -6.516827E-07 3.258414E-07 -1
vn -6.516827E-07 3.258414E-07 -1
vn -6.516827E-07 3.258414E-07 -1
vn -6.516827E-07 3.258414E-07 -1
vn -6.516827E-07 3.258414E-07 -1
vn -6.516827E-07 3.258414E-07 -1
vn -6.516827E-07 3.258414E-07 -1
vn -6.516827E-07 3.258414E-07 -1
vn -1 -3.014579E-14 -5.364418E-07
vn -1 -3.014579E-14 -5.364418E-07
vn -1 -3.014579E-14 -5.364418E-07
vn -1 -3.014579E-14 -5.364418E-07
vn -0.809017 0.5877854 -6.44199E-07
vn -0.809017 0.5877854 -6.44199E-07
vn -0.809017 0.5877854 -6.44199E-07
vn -0.809017 0.5877854 -6.44199E-07
vn -0.3090168 0.9510566 -5.186805E-07
vn -0.3090168 0.9510566 -5.186805E-07
vn -0.3090168 0.9510566 -5.186805E-07
vn -0.3090168 0.9510566 -5.186805E-07
vn 0.3090173 0.9510564 -6.405492E-07
vn 0.3090173 0.9510564 -6.405492E-07
vn 0.3090173 0.9510564 -6.405492E-07
vn 0.3090173 0.9510564 -6.405492E-07
vn 0.8090172 0.587785 -6.749027E-07
vn 0.8090172 0.587785 -6.749027E-07
vn 0.8090172 0.587785 -6.749027E-07
vn 0.8090172 0.587785 -6.749027E-07
vn 1 -3.258414E-07 -5.960464E-07
vn 1 -3.258414E-07 -5.960464E-07
vn 1 -3.258414E-07 -5.960464E-07
vn 1 -3.258414E-07 -5.960464E-07
vn 0.8090169 -0.5877855 -6.9242E-07
vn 0.8090169 -0.5877855 -6.9242E-07
vn 0.8090169 -0.5877855 -6.9242E-07
vn 0.8090169 -0.5877855 -6.9242E-07
vn 0.3090173 -0.9510564 -6.405492E-07
vn 0.3090173 -0.9510564 -6.405492E-07
vn 0.3090173 -0.9510564 -6.405492E-07
vn 0.3090173 -0.9510564 -6.405492E-07
vn -0.3090168 -0.9510566 -5.470242E-07
vn -0.3090168 -0.9510566 -5.470242E-07
vn -0.3090168 -0.9510566 -5.470242E-07
vn -0.3090168 -0.9510566 -5.470242E-07
vn -0.809017 -0.5877854 -6.44199E-07
vn -0.809017 -0.5877854 -6.44199E-07
vn -0.809017 -0.5877854 -6.44199E-07
vn -0.809017 -0.5877854 -6.44199E-07

vt 0.25 0.5
vt 0.25 0.5
vt 0.25 0.5
vt 0.25 0.5
vt 0.25 0.5
vt 0.25 0.5
vt 0.25 0.5
vt 0.25 0.5
vt 0.25 0.5
vt 0.25 0.5
vt 0.25 0.5
vt 0.25 0.5
vt 0.25 0.5
vt 0.25 0.5
vt 0.25 0.5
vt 0.25 0.5
vt 0.25 0.5
vt 0.25 0.5
vt 0.25 0.5
vt 0.25 0.5
vt 0 0
vt 0.25 0.25
vt 0.25 0
vt 0 0.25
vt 0.25 0
vt 0.5 0.25
vt 0.5 0
vt 0.25 0.25
vt 0.5 0
vt 0.75 0.25
vt 0.75 0
vt 0.5 0.25
vt 0.75 0
vt 1 0.25
vt 1 0
vt 0.75 0.25
vt 0 0.25
vt 0.25 0.5
vt 0.25 0.25
vt 0 0.5
vt 0 0.5
vt 0.25 0.75
vt 0.25 0.5
vt 0 0.75
vt 0 0.75
vt 0.25 1
vt 0.25 0.75
vt 0 1
vt 0.25 0.25
vt 0.5 0.5
vt 0.5 0.25
vt 0.25 0.5
vt 0.5 0.25
vt 0.75 0.5
vt 0.75 0.25
vt 0.5 0.5
vt 0.75 0.25
vt 1 0.5
vt 1 0.25
vt 0.75 0.5

vt1 0 0
vt1 0 0
vt1 0 0
vt1 0 0
vt1 0 0
vt1 0 0
vt1 0 0
vt1 0 0
vt1 0 0
vt1 0 0
vt1 0 0
vt1 0 0
vt1 0 0
vt1 0 0
vt1 0 0
vt1 0 0
vt1 0 0
vt1 0 0
vt1 0 0
vt1 0 0
vt1 0 0
vt1 0 0
vt1 0 0
vt1 0 0
vt1 0 0
vt1 0 0
vt1 0 0
vt1 0 0
vt1 0 0
vt1 0 0
vt1 0 0
vt1 0 0
vt1 0 0
vt1 0 0
vt1 0 0
vt1 0 0
vt1 0 0
vt1 0 0
vt1 0 0
vt1 0 0
vt1 0 0
vt1 0 0
vt1 0 0
vt1 0 0
vt1 0 0
vt1 0 0
vt1 0 0
vt1 0 0
vt1 0 0
vt1 0 0
vt1 0 0
vt1 0 0
vt1 0 0
vt1 0 0
vt1 0 0
vt1 0 0
vt1 0 0
vt1 0 0
vt1 0 0
vt1 0 0

vt2 0 0
vt2 0 0
vt2 0 0
vt2 0 0
vt2 0 0
vt2 0 0
vt2 0 0
vt2 0 0
vt2 0 0
vt2 0 0
vt2 0 0
vt2 0 0
vt2 0 0
vt2 0 0
vt2 0 0
vt2 0 0
vt2 0 0
vt2 0 0
vt2 0 0
vt2 0 0
vt2 0 0
vt2 0 0
vt2 0 0
vt2 0 0
vt2 0 0
vt2 0 0
vt2 0 0
vt2 0 0
vt2 0 0
vt2 0 0
vt2 0 0
vt2 0 0
vt2 0 0
vt2 0 0
vt2 0 0
vt2 0 0
vt2 0 0
vt2 0 0
vt2 0 0
vt2 0 0
vt2 0 0
vt2 0 0
vt2 0 0
vt2 0 0
vt2 0 0
vt2 0 0
vt2 0 0
vt2 0 0
vt2 0 0
vt2 0 0
vt2 0 0
vt2 0 0
vt2 0 0
vt2 0 0
vt2 0 0
vt2 0 0
vt2 0 0
vt2 0 0
vt2 0 0
vt2 0 0

vc 1 1 1 1
vc 1 1 1 1
vc 1 1 1 1
vc 1 1 1 1
vc 1 1 1 1
vc 1 1 1 1
vc 1 1 1 1
vc 1 1 1 1
vc 1 1 1 1
vc 1 1 1 1
vc 1 1 1 1
vc 1 1 1 1
vc 1 1 1 1
vc 1 1 1 1
vc 1 1 1 1
vc 1 1 1 1
vc 1 1 1 1
vc 1 1 1 1
vc 1 1 1 1
vc 1 1 1 1
vc 1 1 1 1
vc 1 1 1 1
vc 1 1 1 1
vc 1 1 1 1
vc 1 1 1 1
vc 1 1 1 1
vc 1 1 1 1
vc 1 1 1 1
vc 1 1 1 1
vc 1 1 1 1
vc 1 1 1 1
vc 1 1 1 1
vc 1 1 1 1
vc 1 1 1 1
vc 1 1 1 1
vc 1 1 1 1
vc 1 1 1 1
vc 1 1 1 1
vc 1 1 1 1
vc 1 1 1 1
vc 1 1 1 1
vc 1 1 1 1
vc 1 1 1 1
vc 1 1 1 1
vc 1 1 1 1
vc 1 1 1 1
vc 1 1 1 1
vc 1 1 1 1
vc 1 1 1 1
vc 1 1 1 1
vc 1 1 1 1
vc 1 1 1 1
vc 1 1 1 1
vc 1 1 1 1
vc 1 1 1 1
vc 1 1 1 1
vc 1 1 1 1
vc 1 1 1 1
vc 1 1 1 1
vc 1 1 1 1
f 1/1/1 3/3/3 2/2/2
f 3/3/3 1/1/1 4/4/4
f 4/4/4 1/1/1 5/5/5
f 4/4/4 5/5/5 6/6/6
f 6/6/6 5/5/5 7/7/7
f 6/6/6 7/7/7 8/8/8
f 8/8/8 7/7/7 9/9/9
f 8/8/8 9/9/9 10/10/10
f 11/11/11 13/13/13 12/12/12
f 13/13/13 11/11/11 14/14/14
f 14/14/14 11/11/11 15/15/15
f 14/14/14 15/15/15 16/16/16
f 16/16/16 15/15/15 17/17/17
f 16/16/16 17/17/17 18/18/18
f 18/18/18 17/17/17 19/19/19
f 18/18/18 19/19/19 20/20/20
f 21/21/21 23/23/23 22/22/22
f 22/22/22 24/24/24 21/21/21
f 25/25/25 27/27/27 26/26/26
f 26/26/26 28/28/28 25/25/25
f 29/29/29 31/31/31 30/30/30
f 30/30/30 32/32/32 29/29/29
f 33/33/33 35/35/35 34/34/34
f 34/34/34 36/36/36 33/33/33
f 37/37/37 39/39/39 38/38/38
f 38/38/38 40/40/40 37/37/37
f 41/41/41 43/43/43 42/42/42
f 42/42/42 44/44/44 41/41/41
f 45/45/45 47/47/47 46/46/46
f 46/46/46 48/48/48 45/45/45
f 49/49/49 51/51/51 50/50/50
f 50/50/50 52/52/52 49/49/49
f 53/53/53 55/55/55 54/54/54
f 54/54/54 56/56/56 53/53/53
f 57/57/57 59/59/59 58/58/58
f 58/58/58 60/60/60 57/57/57

